<svg width="160" height="53" viewBox="0 0 160 53" fill="none" xmlns="http://www.w3.org/2000/svg">
<g clip-path="url(#clip0_1449_2502)">
<path d="M134.904 50.1318L137.836 43.3194C138.412 41.9789 138.598 41.6855 139.205 41.5226V41.0662L136.133 41.0703V41.5266C137.148 41.7548 137.256 42.2926 136.79 43.4375L135.611 46.3956L134.141 42.9201C133.83 42.1541 133.873 41.7141 134.95 41.5796V41.0744L130.851 41.0825V41.5878C131.334 41.7181 131.524 41.93 131.944 42.8427L134.558 48.7139L134.122 49.6959C133.873 50.2663 133.64 50.6941 133.375 50.9386C133.189 50.2704 132.827 49.9118 132.267 49.9118C131.707 49.9118 131.225 50.307 131.225 51.073C131.225 51.839 131.82 52.4094 132.52 52.4094C133.515 52.4094 134.141 51.8838 134.9 50.1359M130.739 48.0824L130.505 47.5609C130.085 47.7564 129.712 47.8542 129.385 47.8583C128.654 47.8583 128.464 47.4672 128.464 46.9293L128.456 42.0156H130.435V41.0825H128.456V39.5668H128.176L125.376 41.4981V42.0196H126.515L126.523 47.3571C126.523 48.4165 127.102 48.9869 128.238 48.9869C129.125 48.9869 130 48.6732 130.746 48.0824M124.82 48.3187C123.851 48.172 123.711 47.9602 123.711 47.0638L123.7 40.8095H122.937L120.651 42.3823V42.7408H121.759L121.767 47.0679C121.767 47.9642 121.611 48.1802 120.662 48.3269V48.8321L124.824 48.8239V48.3187H124.82ZM122.591 39.5913C123.245 39.5913 123.774 39.0331 123.774 38.3323C123.774 37.713 123.319 37.2077 122.712 37.2077C122.027 37.2077 121.514 37.7659 121.514 38.4504C121.514 39.0861 121.969 39.5913 122.591 39.5913ZM119.873 46.4363C119.873 44.9166 118.671 44.448 117.547 44.0732C116.439 43.6983 115.677 43.4579 115.677 42.6064C115.677 42.15 116.003 41.7222 116.641 41.7222C117.435 41.7222 118.138 42.2274 118.982 43.2216L119.387 43.026L118.792 41.001H118.543L118.263 41.2455C117.827 41.0499 117.326 40.9358 116.797 40.9399C115.144 40.9399 114.071 41.9422 114.074 43.4416C114.074 44.9614 115.276 45.3973 116.4 45.7885C117.508 46.1796 118.271 46.4037 118.271 47.2716C118.271 47.8094 117.882 48.2209 117.135 48.2209C116.093 48.2209 115.296 47.5079 114.343 46.2326L113.923 46.3956L114.533 48.9421H114.798L115.249 48.5998C115.762 48.8606 116.342 49.0073 116.98 49.0032C118.57 49.0032 119.877 48.0172 119.873 46.4363ZM111.761 48.3432C110.746 48.1802 110.606 47.952 110.606 46.9416V43.5761C110.909 42.9894 111.204 42.5615 111.516 42.2682C111.516 42.9038 111.939 43.3112 112.468 43.3112C112.997 43.3112 113.511 42.8671 113.511 42.0196C113.511 41.3025 113.118 40.8625 112.433 40.8625C111.671 40.8625 111.08 41.5348 110.52 42.4841V40.834H109.832L107.576 42.3904V42.749H108.653L108.661 47.0923C108.661 47.9887 108.521 48.2209 107.634 48.3513V48.8565L111.764 48.8484V48.3432H111.761ZM101.995 43.9224C101.995 42.5982 102.52 41.8159 103.551 41.8118C104.267 41.8118 104.722 42.3497 104.908 43.409L102.011 44.4602C101.995 44.281 101.995 44.1017 101.995 43.9224ZM106.88 47.3897L106.46 47.0475C106.04 47.5527 105.402 47.899 104.671 47.899C103.236 47.899 102.423 46.7623 102.128 45.2751L106.798 43.6331C106.701 41.9015 105.484 40.9562 103.944 40.9603C101.778 40.9603 100.191 42.7979 100.195 45.0673C100.195 47.3205 101.572 49.0317 103.987 49.0277C105.468 49.0277 106.355 48.3391 106.884 47.3897M98.7093 43.3887C99.2848 42.0482 99.4715 41.7548 100.078 41.5918V41.1355L97.0059 41.1396V41.5959C98.0209 41.8241 98.1298 42.3619 97.6631 43.5068L96.4848 46.4648L95.0148 42.9894C94.7036 42.2234 94.7464 41.7833 95.8237 41.6489V41.1436L91.7247 41.1518V41.657C92.2069 41.7874 92.413 41.9993 92.8175 42.9119L95.4931 48.9625H96.302L98.7093 43.3887ZM91.5964 48.3839C90.628 48.2372 90.488 48.0253 90.488 47.129L90.4763 40.8747H89.7141L87.4274 42.4475V42.806H88.5358L88.5435 47.133C88.5435 48.0294 88.388 48.2454 87.4391 48.392V48.8973L91.6003 48.8891V48.3839H91.5964ZM89.368 39.6524C90.0213 39.6524 90.5502 39.0942 90.5502 38.3934C90.5502 37.7741 90.0952 37.2689 89.4886 37.2689C88.8041 37.2689 88.2908 37.8271 88.2908 38.5116C88.2908 39.1472 88.7458 39.6524 89.368 39.6524ZM81.5123 48.4002C80.6256 48.2698 80.4818 48.0416 80.4818 47.1453L80.474 43.3724C81.2518 42.6349 81.8896 42.2763 82.4496 42.2763C83.2118 42.2763 83.4335 42.6838 83.4335 43.4172L83.4412 47.1412C83.4412 48.0376 83.3012 48.2698 82.4146 48.4002V48.9054L86.4202 48.8973V48.392C85.5296 48.2617 85.3896 48.0335 85.3896 47.1371L85.3818 43.2338C85.3818 41.9259 84.849 40.997 83.274 41.001C82.3096 41.001 81.3568 41.6244 80.4234 42.4597V40.891H79.704L77.4484 42.4475V42.806H78.5256L78.5334 47.1493C78.5334 48.0457 78.3934 48.278 77.5067 48.4083V48.9136L81.5123 48.9054V48.4002ZM64.5099 38.8334L64.5176 43.7309C64.5215 46.8967 66.1004 49.101 70.0749 49.0928C74.0494 49.0847 75.6206 46.8764 75.6128 43.7757L75.605 39.8398C75.605 37.9289 76.1145 37.44 77.0011 37.1751V36.6699L73.2289 36.6781V37.1833C74.1194 37.4441 74.6328 37.933 74.6367 39.8439L74.6444 43.7798C74.6483 46.5382 73.2639 47.8135 70.6466 47.8216C68.0449 47.8257 66.641 46.5545 66.6332 43.7961L66.6254 38.8334C66.6254 37.5907 66.9677 37.3789 67.9477 37.2322V36.6944L63.2109 36.7025V37.2403C64.1948 37.387 64.506 37.5989 64.5099 38.8375" fill="#231F20"/>
<path d="M154.66 29.5111C153.773 29.3807 153.629 29.1525 153.629 28.2561L153.621 24.4832C154.399 23.7457 155.037 23.3872 155.597 23.3872C156.359 23.3872 156.581 23.7946 156.581 24.528L156.588 28.2521C156.588 29.1484 156.448 29.3807 155.562 29.5111V30.0163L159.567 30.0081V29.5029C158.677 29.3725 158.537 29.1444 158.537 28.248L158.529 24.3447C158.529 23.0368 157.996 22.1078 156.421 22.1119C155.457 22.1119 154.504 22.7353 153.571 23.5705V22.0019H152.851L150.596 23.5583V23.9169H151.673L151.681 28.2602C151.681 29.1566 151.541 29.3888 150.654 29.5192V30.0244L154.66 30.0163V29.5111ZM148.457 29.5233C147.442 29.3603 147.302 29.1321 147.302 28.1217V24.7562C147.605 24.1695 147.901 23.7417 148.212 23.4483C148.212 24.0839 148.636 24.4914 149.164 24.4914C149.693 24.4914 150.207 24.0473 150.207 23.1998C150.207 22.4827 149.814 22.0426 149.129 22.0426C148.367 22.0426 147.776 22.7149 147.216 23.6643V22.0141H146.528L144.272 23.5705V23.9291H145.349L145.357 28.2724C145.357 29.1688 145.217 29.401 144.33 29.5314V30.0367L148.461 30.0285V29.5233H148.457ZM138.695 25.1025C138.695 23.7783 139.22 22.996 140.251 22.992C140.967 22.992 141.422 23.5298 141.608 24.5891L138.711 25.6404C138.695 25.4611 138.695 25.2818 138.695 25.1025ZM143.576 28.5699L143.156 28.2276C142.736 28.7328 142.098 29.0792 141.367 29.0792C139.932 29.0792 139.119 27.9424 138.824 26.4552L143.494 24.8132C143.397 23.0816 142.18 22.1363 140.64 22.1404C138.474 22.1404 136.887 23.978 136.891 26.2474C136.891 28.5006 138.268 30.2119 140.683 30.2078C142.164 30.2078 143.051 29.5192 143.58 28.5699M136.378 29.3196L136.144 28.798C135.724 28.9936 135.351 29.0914 135.024 29.0955C134.293 29.0955 134.103 28.7043 134.103 28.1665L134.095 23.2527H136.074V22.3197H134.095V20.804H133.815L131.015 22.7353V23.2568H132.154L132.162 28.5943C132.162 29.6537 132.741 30.2241 133.877 30.2241C134.764 30.2241 135.639 29.9103 136.385 29.3196M130.486 27.6653C130.486 26.1456 129.284 25.677 128.16 25.3022C127.052 24.9273 126.29 24.6869 126.29 23.8354C126.29 23.379 126.616 22.9512 127.254 22.9512C128.047 22.9512 128.751 23.4565 129.595 24.4506L130 24.255L129.405 22.2301H129.156L128.876 22.4745C128.44 22.2789 127.939 22.1649 127.41 22.1689C125.757 22.1689 124.684 23.1712 124.687 24.6706C124.687 26.1904 125.889 26.6264 127.013 27.0175C128.121 27.4087 128.884 27.6327 128.884 28.5006C128.884 29.0384 128.495 29.4499 127.748 29.4499C126.706 29.4499 125.909 28.7369 124.956 27.4616L124.536 27.6246L125.146 30.1711H125.411L125.862 29.8289C126.375 30.0896 126.955 30.2363 127.592 30.2322C129.183 30.2322 130.49 29.2462 130.486 27.6653ZM118.488 27.9954C118.488 27.1642 118.846 26.769 120.666 26.2434V28.6106C120.235 28.9692 119.846 29.1362 119.457 29.1362C118.85 29.1362 118.488 28.794 118.488 27.9954ZM121.918 30.1793C122.587 30.1793 123.303 29.8492 123.774 29.507L123.634 29.0506C122.871 29.1973 122.591 29.0832 122.587 28.5454L122.58 24.1858C122.58 22.8779 122.031 22.1771 120.27 22.1812C118.29 22.1812 116.843 23.2976 116.843 24.3447C116.843 24.8499 117.174 25.2737 117.734 25.2737C118.372 25.2737 118.683 24.8295 118.776 24.3895C118.87 23.8843 118.714 23.5094 118.477 23.2976C118.866 23.102 119.255 23.0042 119.659 23.0001C120.328 23.0001 120.658 23.2446 120.658 23.8802V25.514C117.874 26.2393 116.595 26.8749 116.598 28.4273C116.598 29.6211 117.333 30.2526 118.488 30.2526C119.22 30.2526 120.063 29.9226 120.779 29.3359C120.888 29.8737 121.25 30.1833 121.918 30.1833M110.862 25.1514C110.862 23.8272 111.387 23.0449 112.418 23.0409C113.133 23.0409 113.588 23.5787 113.775 24.638L110.878 25.6892C110.862 25.51 110.862 25.3307 110.862 25.1514ZM115.747 28.6228L115.327 28.2806C114.907 28.7858 114.269 29.1321 113.538 29.1321C112.103 29.1321 111.29 27.9954 110.994 26.5082L115.665 24.8662C115.568 23.1346 114.351 22.1893 112.811 22.1934C110.644 22.1934 109.058 24.031 109.062 26.3004C109.062 28.5536 110.438 30.2648 112.853 30.2607C114.335 30.2607 115.222 29.5722 115.751 28.6228M103.345 29.6088C102.458 29.4785 102.314 29.2503 102.314 28.3539L102.307 24.5647C103.053 23.8435 103.629 23.485 104.282 23.485C105.044 23.485 105.266 23.8924 105.266 24.6258L105.274 28.3498C105.274 29.2462 105.134 29.4785 104.247 29.6088V30.1141L108.253 30.1059V29.6007C107.362 29.4703 107.222 29.2421 107.222 28.3458L107.214 24.4425C107.214 23.1346 106.682 22.2056 105.107 22.2097C104.158 22.2097 103.22 22.8005 102.303 23.6194L102.291 17.1533H101.715L99.2109 18.8727V19.2313H100.35L100.366 28.358C100.366 29.2544 100.226 29.4866 99.3393 29.617V30.1222L103.345 30.1141V29.6088ZM98.8687 29.3888L98.6354 28.8673C98.2154 29.0629 97.842 29.1607 97.5153 29.1647C96.7842 29.1647 96.5937 28.7736 96.5937 28.2358L96.5859 23.322H98.5654V22.389H96.5859V20.8733H96.3059L93.5058 22.8046V23.3261H94.6453L94.6531 28.6636C94.6531 29.7229 95.2325 30.2933 96.3681 30.2933C97.2548 30.2933 98.1298 29.9796 98.8765 29.3888M91.2347 29.6292C90.2197 29.4662 90.0797 29.2381 90.0797 28.2276V24.8621C90.383 24.2754 90.6786 23.8476 90.9897 23.5542C90.9897 24.1899 91.4136 24.5973 91.9425 24.5973C92.4714 24.5973 92.9847 24.1532 92.9847 23.3057C92.9847 22.5886 92.5919 22.1486 91.9075 22.1486C91.1453 22.1486 90.5541 22.8208 89.9941 23.7702V22.12H89.3058L87.0502 23.6765V24.035H88.1274L88.1352 28.3784C88.1352 29.2747 87.9952 29.507 87.1085 29.6374V30.1426L91.2386 30.1344V29.6292H91.2347ZM79.9762 25.4529C79.9762 23.9821 80.579 23.0531 81.8584 23.049C83.5112 23.049 83.9974 25.1677 84.0013 27.1112C84.0013 28.5821 83.3985 29.5111 82.119 29.5151C80.4662 29.5151 79.9801 27.3964 79.9762 25.4529ZM85.9457 26.1782C85.9457 24.0391 84.569 22.2464 82.0607 22.2504C79.5367 22.2545 78.0278 24.1695 78.0317 26.39C78.0317 28.5291 79.4084 30.3219 81.9168 30.3178C84.4407 30.3137 85.9496 28.3987 85.9457 26.1782ZM75.7761 21.0851C75.7761 19.1742 76.2856 18.6853 77.1723 18.4205V17.9152L73.4 17.9234V18.4286C74.2906 18.6894 74.8039 19.1783 74.8078 21.0892L74.8156 26.8382L66.8549 18.4449C66.4193 17.9886 66.2482 17.9397 65.9643 17.9397H63.0204V18.4531C63.6582 18.5183 64.0354 18.779 64.7665 19.5124C64.9999 19.7406 65.2176 20.0176 65.2215 20.474L65.2332 27.0216C65.2332 28.9325 64.7237 29.4214 63.8371 29.6863V30.1915L67.6093 30.1833V29.6781C66.7188 29.4173 66.2054 28.9284 66.2015 27.0175L66.1899 20.8448L75.15 30.2485H75.7878L75.7722 21.0892L75.7761 21.0851Z" fill="#231F20"/>
<path d="M53.4925 13.9468C53.4925 5.96089 56.0553 3.34103 61.177 1.31197V0H44.3651V1.30789C49.4907 3.33696 52.0497 5.95681 52.0497 13.9427V37.3829L16.4969 1.7683C14.8713 0.195573 14.4358 0 13.3741 0H0V1.30789C2.93616 1.63384 4.68618 2.4854 8.9368 6.80837L10.5624 8.44629V35.1582C10.5624 43.1441 7.99957 45.764 2.87782 47.793V49.1009H19.6897V47.793C14.5641 45.764 12.0052 43.1441 12.0052 35.1582V9.68899L52.248 49.4309H53.4964V13.9468H53.4925Z" fill="#231F20"/>
</g>
<defs>
<clipPath id="clip0_1449_2502">
<rect width="159.567" height="52.4053" fill="white"/>
</clipPath>
</defs>
</svg>
