<svg width="42" height="31" viewBox="0 0 42 31" fill="none" xmlns="http://www.w3.org/2000/svg">
<path id="Vector" d="M36.3701 8.51625C36.3701 3.63987 38.0886 2.04012 41.5231 0.80112V0H30.2496V0.798632C33.6867 2.03763 35.4026 3.63738 35.4026 8.51376V22.8269L11.5622 1.07977C10.4722 0.119422 10.1801 0 9.46817 0H0.5V0.798632C2.46888 0.997668 3.64238 1.51765 6.49269 4.15736L7.58274 5.15752V21.4685C7.58274 26.3449 5.86421 27.9446 2.42976 29.1836V29.9823H13.7032V29.1836C10.2662 27.9446 8.55023 26.3449 8.55023 21.4685V5.91634L35.5356 30.1838H36.3727V8.51625H36.3701Z" fill="#231F20"/>
</svg>
